<svg width="280" height="56" viewBox="0 0 280 56" fill="none" xmlns="http://www.w3.org/2000/svg">
<path d="M0.528 46V0.639997H10.552V19.008H17.552V0.639997H27.632V46H17.552V26.176H10.552V46H0.528ZM40.6997 46.56C39.057 46.56 37.6757 46.168 36.5557 45.384C35.4357 44.6 34.5957 43.6107 34.0357 42.416C33.4757 41.184 33.1957 39.9333 33.1957 38.664C33.1957 36.648 33.5877 34.9493 34.3717 33.568C35.193 32.1867 36.257 31.0293 37.5637 30.096C38.8704 29.1627 40.3077 28.3787 41.8757 27.744C43.4437 27.072 44.993 26.4747 46.5237 25.952V22.704C46.5237 22.144 46.4677 21.6587 46.3557 21.248C46.2437 20.8 46.057 20.464 45.7957 20.24C45.5344 19.9787 45.1424 19.848 44.6197 19.848C44.097 19.848 43.6864 19.96 43.3877 20.184C43.1264 20.408 42.9397 20.7253 42.8277 21.136C42.7157 21.5093 42.641 21.9387 42.6037 22.424L42.3797 24.776L33.8677 24.44C34.0544 20.5573 35.081 17.7013 36.9477 15.872C38.8517 14.0053 41.689 13.072 45.4597 13.072C48.745 13.072 51.1904 13.9867 52.7957 15.816C54.4384 17.608 55.2597 19.9413 55.2597 22.816V37.936C55.2597 39.28 55.2784 40.456 55.3157 41.464C55.3904 42.472 55.465 43.3493 55.5397 44.096C55.6517 44.8427 55.745 45.4773 55.8197 46H47.6437C47.5317 45.1413 47.401 44.208 47.2517 43.2C47.1024 42.192 46.9904 41.5947 46.9157 41.408C46.5424 42.752 45.833 43.9467 44.7877 44.992C43.7797 46.0373 42.417 46.56 40.6997 46.56ZM43.9477 40.4C44.321 40.4 44.657 40.3253 44.9557 40.176C45.2917 40.0267 45.5904 39.8213 45.8517 39.56C46.113 39.2987 46.337 39.0373 46.5237 38.776V29.928C45.777 30.376 45.0864 30.8427 44.4517 31.328C43.817 31.776 43.2757 32.28 42.8277 32.84C42.3797 33.4 42.025 34.016 41.7637 34.688C41.5397 35.3227 41.4277 36.0507 41.4277 36.872C41.4277 37.9547 41.6517 38.8133 42.0997 39.448C42.5477 40.0827 43.1637 40.4 43.9477 40.4ZM60.6685 46V13.632H69.7965V16.88C70.9912 15.6853 72.2232 14.752 73.4925 14.08C74.7992 13.408 76.1618 13.072 77.5805 13.072C78.9245 13.072 80.0258 13.408 80.8845 14.08C81.7805 14.7147 82.4525 15.6107 82.9005 16.768C83.3485 17.888 83.5725 19.176 83.5725 20.632V46H74.5005V21.92C74.5005 21.136 74.3698 20.5387 74.1085 20.128C73.8472 19.7173 73.3618 19.512 72.6525 19.512C72.2792 19.512 71.8312 19.624 71.3085 19.848C70.8232 20.0347 70.3192 20.3147 69.7965 20.688V46H60.6685ZM89.0513 46V0.639997H98.1233V25.784L106.075 13.632H116.323L107.699 26.904L116.211 46H106.243L100.531 30.6L98.1233 33.68V46H89.0513ZM134.012 46L134.796 0.639997H145.548L150.532 27.016L155.908 0.639997H166.268L167.052 46H159.94L159.1 15.816L153.836 46H147.508L141.908 15.592L141.236 46H134.012ZM183.634 46.56C181.282 46.56 179.266 46.1307 177.586 45.272C175.943 44.4133 174.674 43.1813 173.778 41.576C172.882 39.9707 172.434 38.0293 172.434 35.752V23.88C172.434 21.5653 172.882 19.6053 173.778 18C174.674 16.3947 175.943 15.1813 177.586 14.36C179.266 13.5013 181.282 13.072 183.634 13.072C185.949 13.072 187.909 13.4267 189.514 14.136C191.157 14.8453 192.407 15.928 193.266 17.384C194.125 18.8027 194.554 20.6133 194.554 22.816V26.232H185.762V22.536C185.762 21.6773 185.669 21.024 185.482 20.576C185.333 20.0907 185.09 19.7547 184.754 19.568C184.455 19.3813 184.082 19.288 183.634 19.288C183.186 19.288 182.813 19.4187 182.514 19.68C182.215 19.904 181.991 20.296 181.842 20.856C181.693 21.3787 181.618 22.1253 181.618 23.096V36.536C181.618 37.992 181.786 38.9813 182.122 39.504C182.495 40.0267 183.018 40.288 183.69 40.288C184.175 40.288 184.567 40.1947 184.866 40.008C185.165 39.784 185.389 39.448 185.538 39C185.687 38.5147 185.762 37.88 185.762 37.096V32.784H194.554V36.704C194.554 38.8693 194.106 40.6987 193.21 42.192C192.351 43.648 191.101 44.7493 189.458 45.496C187.853 46.2053 185.911 46.56 183.634 46.56ZM212.797 46.672C209.363 46.672 206.637 46.056 204.621 44.824C202.643 43.5547 201.243 41.8 200.421 39.56C199.6 37.2827 199.189 34.6133 199.189 31.552V15.2C199.189 12.064 199.6 9.376 200.421 7.136C201.243 4.85866 202.643 3.104 204.621 1.872C206.637 0.639998 209.363 0.0239978 212.797 0.0239978C216.157 0.0239978 218.771 0.583998 220.637 1.704C222.541 2.78667 223.885 4.31733 224.669 6.296C225.453 8.27467 225.845 10.552 225.845 13.128V17.048H216.045V12.512C216.045 11.616 215.989 10.7573 215.877 9.936C215.803 9.11467 215.541 8.44267 215.093 7.92C214.645 7.36 213.88 7.08 212.797 7.08C211.752 7.08 210.968 7.36 210.445 7.92C209.96 8.48 209.643 9.18933 209.493 10.048C209.381 10.8693 209.325 11.7467 209.325 12.68V34.016C209.325 35.024 209.4 35.9573 209.549 36.816C209.736 37.6373 210.072 38.3093 210.557 38.832C211.08 39.3173 211.827 39.56 212.797 39.56C213.843 39.56 214.589 39.2987 215.037 38.776C215.485 38.216 215.765 37.5067 215.877 36.648C215.989 35.7893 216.045 34.912 216.045 34.016V29.256H225.845V33.176C225.845 35.752 225.453 38.0667 224.669 40.12C223.923 42.136 222.597 43.7413 220.693 44.936C218.827 46.0933 216.195 46.672 212.797 46.672ZM241.496 46.56C239.181 46.56 237.165 46.168 235.448 45.384C233.768 44.6 232.461 43.424 231.528 41.856C230.632 40.288 230.184 38.328 230.184 35.976V23.656C230.184 21.304 230.632 19.344 231.528 17.776C232.461 16.208 233.768 15.032 235.448 14.248C237.165 13.464 239.181 13.072 241.496 13.072C243.811 13.072 245.808 13.464 247.488 14.248C249.205 15.032 250.531 16.208 251.464 17.776C252.397 19.344 252.864 21.304 252.864 23.656V35.976C252.864 38.328 252.397 40.288 251.464 41.856C250.531 43.424 249.205 44.6 247.488 45.384C245.808 46.168 243.811 46.56 241.496 46.56ZM241.552 40.512C242.149 40.512 242.616 40.3627 242.952 40.064C243.288 39.728 243.512 39.28 243.624 38.72C243.773 38.1227 243.848 37.4133 243.848 36.592V23.04C243.848 22.2187 243.773 21.528 243.624 20.968C243.512 20.3707 243.288 19.9227 242.952 19.624C242.616 19.288 242.149 19.12 241.552 19.12C240.955 19.12 240.488 19.288 240.152 19.624C239.816 19.9227 239.573 20.3707 239.424 20.968C239.275 21.528 239.2 22.2187 239.2 23.04V36.592C239.2 37.4133 239.275 38.1227 239.424 38.72C239.573 39.28 239.816 39.728 240.152 40.064C240.488 40.3627 240.955 40.512 241.552 40.512ZM258.822 55.408V49.08C259.98 49.08 260.932 49.0053 261.678 48.856C262.462 48.7067 263.041 48.4267 263.414 48.016C263.825 47.6053 264.03 47.0453 264.03 46.336C264.03 45.7013 263.918 44.936 263.694 44.04C263.47 43.1067 263.19 42.0613 262.854 40.904L255.238 13.632H263.806L267.894 32.336L270.974 13.632H279.598L272.15 46.784C271.665 49.024 270.9 50.76 269.854 51.992C268.809 53.2613 267.521 54.1387 265.99 54.624C264.497 55.1467 262.798 55.408 260.894 55.408H258.822Z" fill="#19203E"/>
</svg>
